<svg width="900.29" height="178.01" version="1.1" viewBox="0 0 238.2 47.1" xmlns="http://www.w3.org/2000/svg" xmlns:xlink="http://www.w3.org/1999/xlink"><defs><linearGradient id="b" x1="33.468" x2="178.69" y1="158.13" y2="158.57" gradientTransform="translate(0 -10.583)" gradientUnits="userSpaceOnUse"><stop stop-color="#103b80" offset="0"/><stop stop-color="#40abcd" offset="1"/></linearGradient><linearGradient id="a" x1="33.468" x2="178.69" y1="158.13" y2="158.57" gradientTransform="matrix(.8851 0 0 1.2431 -199.59 -49.437)" gradientUnits="userSpaceOnUse"><stop stop-color="#0a2c77" offset="0"/><stop stop-color="#40abcd" offset="1"/></linearGradient></defs><g transform="translate(13.096 -124.38)"><rect transform="scale(-1,1)" x="-213.86" y="124.88" width="215.77" height="46.1" rx="28.219" ry="22.621" fill="url(#a)" opacity=".99357" stroke="#0a2c77"/><rect x="-13.096" y="129.65" width="238.2" height="37.251" rx="22.118" ry="18.198" fill="url(#b)" stroke-width="3.0976"/><g fill="#fff"><g transform="matrix(.41598 0 0 .2651 81.52 104)" stroke-width="1.8191" style="font-variant-caps:normal;font-variant-east-asian:normal;font-variant-ligatures:normal;font-variant-numeric:normal" aria-label="R"><path d="m4.1153 154.3 6.801-0.39134v-16.779h0.09748l10.989 17.561 7.0185-1.7121-9.1143-13.501c3.9479-1.2718 4.9642-4.6471 4.9642-8.805 0-7.1908-3.5995-10.321-10.033-10.321h-10.723zm6.801-27.736h2.1184c1.9717 0 4.623 0.44025 4.623 4.3047 0 3.7666-2.7271 4.696-4.7692 4.696h-1.9721z" fill="#fff" stroke-width="1.835" style="font-variant-caps:normal;font-variant-east-asian:normal;font-variant-ligatures:normal;font-variant-numeric:normal"/></g><g transform="scale(1.2483 .80111)" stroke-width=".20188" style="font-variant-caps:normal;font-variant-east-asian:normal;font-variant-ligatures:normal;font-variant-numeric:normal" aria-label="RECOVERY LTD"><path d="m81.92 180.8 0.68274-2.0645h-4.7304v-2.731h3.3812v-2.0645h-3.3812v-2.227h4.2103l-0.35763-2.0645h-5.9984v11.151z" style="font-variant-caps:normal;font-variant-east-asian:normal;font-variant-ligatures:normal;font-variant-numeric:normal"/><path d="m91.186 177.93c-0.58521 0.47142-1.2842 0.92658-2.1783 0.92658-1.8694 0-3.43-1.5606-3.43-3.6413 0-1.8857 1.3655-3.6413 3.3324-3.6413 0.92658 0 1.6743 0.32511 2.2596 0.79653l-0.35763-2.5847c-0.45516-0.27635-1.268-0.4064-1.8044-0.4064-3.3324 0-5.6733 2.6172-5.6733 5.8358 0 3.2512 2.2921 5.8358 5.7383 5.8358 0.50393 0 1.3492-0.1463 1.8206-0.42265z" style="font-variant-caps:normal;font-variant-east-asian:normal;font-variant-ligatures:normal;font-variant-numeric:normal"/><path d="m92.285 175.22c0 3.2349 2.666 5.8358 5.8846 5.8358 3.2187 0 5.8846-2.6009 5.8846-5.8358 0-3.2349-2.666-5.8358-5.8846-5.8358-3.2186 0-5.8846 2.6009-5.8846 5.8358zm2.2433 0c0-1.9832 1.6581-3.6413 3.6413-3.6413 1.9832 0 3.6413 1.6581 3.6413 3.6413 0 1.9832-1.6581 3.6413-3.6413 3.6413-1.9832 0-3.6413-1.6581-3.6413-3.6413z" style="font-variant-caps:normal;font-variant-east-asian:normal;font-variant-ligatures:normal;font-variant-numeric:normal"/><path d="m106.47 169.38-2.2921 0.2601 4.7467 11.412h0.0325l4.8767-11.412-2.162-0.2601-2.731 7.0062z" style="font-variant-caps:normal;font-variant-east-asian:normal;font-variant-ligatures:normal;font-variant-numeric:normal"/><path d="m120.78 180.8 0.68275-2.0645h-4.7304v-2.731h3.3812v-2.0645h-3.3812v-2.227h4.2102l-0.35763-2.0645h-5.9984v11.151z" style="font-variant-caps:normal;font-variant-east-asian:normal;font-variant-ligatures:normal;font-variant-numeric:normal"/><path d="m122.72 180.93 2.1458-0.13005v-5.5757h0.0325l3.7876 5.8358 2.3408-0.56896-3.0398-4.4866c1.3167-0.42265 2.1458-1.5443 2.1458-2.926 0-2.3896-1.6906-3.43-3.8364-3.43h-3.5763zm2.1458-9.217h0.82904c1.0566 0 2.032 0.1463 2.032 1.4305 0 1.2517-1.0241 1.5606-2.0807 1.5606h-0.78028z" style="font-variant-caps:normal;font-variant-east-asian:normal;font-variant-ligatures:normal;font-variant-numeric:normal"/><path d="m133.89 176.8-1.8206 3.8038 2.2108 0.45517 4.9743-11.086-2.1133-0.58521-2.1945 5.1368-2.5847-5.1368-2.0808 0.58521z" style="font-variant-caps:normal;font-variant-east-asian:normal;font-variant-ligatures:normal;font-variant-numeric:normal"/><path d="m150.11 180.8 0.53644-2.0645h-4.064v-9.3471l-2.1458 0.2601v11.151z" style="font-variant-caps:normal;font-variant-east-asian:normal;font-variant-ligatures:normal;font-variant-numeric:normal"/><path d="m149.61 171.71h3.0398v9.217l2.1458-0.13005v-9.087h2.7797v-2.0645h-7.4452z" style="font-variant-caps:normal;font-variant-east-asian:normal;font-variant-ligatures:normal;font-variant-numeric:normal"/><path d="m160.88 178.73v-7.0225h1.0404c1.7881 0 3.0886 1.528 3.0886 3.43 0 1.7719-1.0241 3.5925-2.9911 3.5925zm-2.1458 2.0645h2.9586c2.6334 0 5.5595-1.9182 5.5595-5.657 0-3.0561-2.3896-5.4945-5.1368-5.4945h-3.3812z" style="font-variant-caps:normal;font-variant-east-asian:normal;font-variant-ligatures:normal;font-variant-numeric:normal"/></g><g transform="scale(1.4777 .67672)" stroke-width="1.8534" style="font-variant-caps:normal;font-variant-east-asian:normal;font-variant-ligatures:normal;font-variant-numeric:normal" aria-label="S"><path d="m30.597 230.37c2.8605 3.5016 6.4114 5.2771 10.653 5.2771 6.3621 0 11.491-3.9455 11.491-10.11 0-13.316-14.746-9.1732-14.746-14.943 0-3.1071 2.0714-4.0934 4.34-4.0934 1.8248 0 4.2414 1.3809 5.8196 3.0577l4.0441-4.7346c-2.0221-2.7125-6.1155-4.5866-9.4691-4.5866-6.7073 0-11.541 3.8962-11.541 10.357 0 11.984 14.746 8.1868 14.746 14.894 0 2.0714-2.0221 3.8962-4.34 3.8962-3.6496 0-4.8332-1.7755-6.51-3.6496z" fill="#fff" stroke-width="1.8534" style="font-variant-caps:normal;font-variant-east-asian:normal;font-variant-ligatures:normal;font-variant-numeric:normal"/></g></g><g fill="#cf1a05"><rect transform="matrix(1 0 -.43875 .89861 0 0)" x="162.07" y="166.49" width="7.4879" height="11.851"/><rect transform="matrix(1 0 -.43875 .89861 0 0)" x="173.18" y="166.49" width="7.4879" height="11.851"/><rect transform="matrix(1 0 -.43875 .89861 0 0)" x="184.29" y="166.49" width="7.4879" height="11.851"/><rect transform="matrix(1 0 -.43875 .89861 0 0)" x="195.41" y="166.49" width="7.4879" height="11.851"/><rect transform="matrix(1 0 -.43875 .89861 0 0)" x="206.52" y="166.49" width="7.4879" height="11.851"/><rect transform="matrix(1 0 -.43875 .89861 0 0)" x="217.63" y="166.49" width="7.4879" height="11.851"/><rect transform="matrix(1 0 -.43875 .89861 0 0)" x="228.74" y="166.49" width="7.4879" height="11.851"/><rect transform="matrix(1 0 -.43875 .89861 0 0)" x="239.86" y="166.49" width="7.4879" height="11.851"/><rect transform="matrix(1 0 -.43875 .89861 0 0)" x="250.97" y="166.49" width="7.4879" height="11.851"/><rect transform="matrix(1 0 -.43875 .89861 0 0)" x="262.08" y="166.49" width="7.4879" height="11.851"/><rect transform="matrix(1 0 -.43875 .89861 0 0)" x="273.19" y="166.49" width="7.4879" height="11.851"/></g><g transform="matrix(1.4504 0 0 .68948 0 52.917)" fill="#fff" stroke-width="1.8191" style="font-variant-caps:normal;font-variant-east-asian:normal;font-variant-ligatures:normal;font-variant-numeric:normal" aria-label="R"><path d="m4.1153 154.3 6.801-0.39134v-16.779h0.09748l10.989 17.561 7.0185-1.7121-9.1143-13.501c3.9479-1.2718 4.9642-4.6471 4.9642-8.805 0-7.1908-3.5995-10.321-10.033-10.321h-10.723zm6.801-27.736h2.1184c1.9717 0 4.623 0.44025 4.623 4.3047 0 3.7666-2.7271 4.696-4.7692 4.696h-1.9721z" fill="#fff" stroke-width="1.835" style="font-variant-caps:normal;font-variant-east-asian:normal;font-variant-ligatures:normal;font-variant-numeric:normal"/></g></g></svg>
